G04*
G04 #@! TF.GenerationSoftware,Altium Limited,Altium Designer,21.3.2 (30)*
G04*
G04 Layer_Color=16711935*
%FSLAX25Y25*%
%MOIN*%
G70*
G04*
G04 #@! TF.SameCoordinates,32D37CD9-B2DB-4459-BEB8-4619D630D6D0*
G04*
G04*
G04 #@! TF.FilePolarity,Positive*
G04*
G01*
G75*
%ADD17C,0.00197*%
%ADD18C,0.00394*%
%ADD39C,0.04724*%
D17*
X124319Y242500D02*
X125303D01*
X125500Y242697D01*
Y243090D01*
X125303Y243287D01*
X124319D01*
X125500Y243681D02*
Y244074D01*
Y243878D01*
X124319D01*
X124516Y243681D01*
X119685Y237913D02*
X130315D01*
X119685Y252087D02*
X130315D01*
X119685Y237913D02*
Y252087D01*
X130315Y237913D02*
Y252087D01*
D18*
X120768Y242244D02*
X129232D01*
X120768Y247756D02*
X129232D01*
X120768Y242244D02*
Y247756D01*
X129232Y242244D02*
Y247756D01*
X125000Y243032D02*
Y246969D01*
X123031Y245000D02*
X126969D01*
D39*
X5000Y334646D02*
X4025Y334550D01*
X3087Y334265D01*
X2222Y333803D01*
X1464Y333181D01*
X843Y332423D01*
X381Y331559D01*
X96Y330621D01*
X0Y329646D01*
X5000Y334646D02*
X4025Y334550D01*
X3087Y334265D01*
X2222Y333803D01*
X1464Y333181D01*
X843Y332423D01*
X381Y331559D01*
X96Y330621D01*
X0Y329646D01*
X393701D02*
X393605Y330621D01*
X393320Y331559D01*
X392858Y332423D01*
X392236Y333181D01*
X391479Y333803D01*
X390614Y334265D01*
X389676Y334550D01*
X388701Y334646D01*
Y0D02*
X389676Y96D01*
X390614Y381D01*
X391479Y843D01*
X392236Y1464D01*
X392858Y2222D01*
X393320Y3087D01*
X393605Y4025D01*
X393701Y5000D01*
X0D02*
X96Y4025D01*
X381Y3087D01*
X843Y2222D01*
X1464Y1464D01*
X2222Y843D01*
X3087Y381D01*
X4025Y96D01*
X5000Y0D01*
X0Y216535D02*
Y329646D01*
X5000Y334646D02*
X388701D01*
X393701Y5000D02*
Y329646D01*
X5000Y0D02*
X388701D01*
X0Y5000D02*
Y216535D01*
M02*
